HIERARCHY
ROOT hip
{
  OFFSET 0 0 0
  CHANNELS 6 Xposition Yposition Zposition Zrotation Yrotation Xrotation
  JOINT abdomen
  {
    OFFSET 0 20.6881 -0.73152
    CHANNELS 3 Zrotation Xrotation Yrotation
    JOINT chest
    {
      OFFSET 0 11.7043 -0.48768
      CHANNELS 3 Zrotation Xrotation Yrotation
      JOINT neck
      {
        OFFSET 0 22.1894 -2.19456
        CHANNELS 3 Zrotation Xrotation Yrotation
        JOINT head
        {
          OFFSET -0.24384 7.07133 1.2192
          CHANNELS 3 Zrotation Xrotation Yrotation
          JOINT leftEye
          {
            OFFSET 4.14528 8.04674 8.04672
            CHANNELS 3 Zrotation Xrotation Yrotation
            End Site
            {
              OFFSET 1 0 0
            }
          }
          JOINT rightEye
          {
            OFFSET -3.6576 8.04674 8.04672
            CHANNELS 3 Zrotation Xrotation Yrotation
            End Site
            {
              OFFSET 1 0 0
            }
          }
        }
      }
      JOINT rCollar
      {
        OFFSET -2.68224 19.2634 -4.8768
        CHANNELS 3 Zrotation Xrotation Yrotation
        JOINT rShldr
        {
          OFFSET -8.77824 -1.95073 1.46304
          CHANNELS 3 Zrotation Xrotation Yrotation
          JOINT rForeArm
          {
            OFFSET -28.1742 -1.7115 0.48768
            CHANNELS 3 Zrotation Xrotation Yrotation
            JOINT rHand
            {
              OFFSET -22.5879 0.773209 7.07136
              CHANNELS 3 Zrotation Xrotation Yrotation
              JOINT rThumb1
              {
                OFFSET -1.2192 -0.487915 3.41376
                CHANNELS 3 Zrotation Xrotation Yrotation
                JOINT rThumb2
                {
                  OFFSET -3.37035 -0.52449 3.41376
                  CHANNELS 3 Zrotation Xrotation Yrotation
                  End Site
                  {
                    OFFSET -1.78271 -1.18214 1.43049
                  }
                }
              }
              JOINT rIndex1
              {
                OFFSET -7.75947 0.938293 5.60832
                CHANNELS 3 Zrotation Xrotation Yrotation
                JOINT rIndex2
                {
                  OFFSET -2.54057 -0.884171 1.56538
                  CHANNELS 3 Zrotation Xrotation Yrotation
                  End Site
                  {
                    OFFSET -1.62519 -0.234802 1.16502
                  }
                }
              }
              JOINT rMid1
              {
                OFFSET -8.24714 1.18213 3.41376
                CHANNELS 3 Zrotation Xrotation Yrotation
                JOINT rMid2
                {
                  OFFSET -3.10165 -0.590103 1.0647
                  CHANNELS 3 Zrotation Xrotation Yrotation
                  End Site
                  {
                    OFFSET -2.48547 -0.328903 0.83742
                  }
                }
              }
              JOINT rRing1
              {
                OFFSET -8.82822 0.546677 1.51678
                CHANNELS 3 Zrotation Xrotation Yrotation
                JOINT rRing2
                {
                  OFFSET -2.60934 -0.819778 -0.0198488
                  CHANNELS 3 Zrotation Xrotation Yrotation
                  End Site
                  {
                    OFFSET -2.33842 -0.294052 0.168128
                  }
                }
              }
              JOINT rPinky1
              {
                OFFSET -8.27202 -0.0477905 -0.4584
                CHANNELS 3 Zrotation Xrotation Yrotation
                JOINT rPinky2
                {
                  OFFSET -1.82734 -0.647385 -0.700984
                  CHANNELS 3 Zrotation Xrotation Yrotation
                  End Site
                  {
                    OFFSET -1.69225 -0.51767 -0.607171
                  }
                }
              }
            }
          }
        }
      }
      JOINT lCollar
      {
        OFFSET 2.68224 19.2634 -4.8768
        CHANNELS 3 Zrotation Xrotation Yrotation
        JOINT lShldr
        {
          OFFSET 8.77824 -1.95073 1.46304
          CHANNELS 3 Zrotation Xrotation Yrotation
          JOINT lForeArm
          {
            OFFSET 28.1742 -1.7115 0.48768
            CHANNELS 3 Zrotation Xrotation Yrotation
            JOINT lHand
            {
              OFFSET 22.5879 0.773209 7.07136
              CHANNELS 3 Zrotation Xrotation Yrotation
              JOINT lThumb1
              {
                OFFSET 1.2192 -0.487915 3.41376
                CHANNELS 3 Zrotation Xrotation Yrotation
                JOINT lThumb2
                {
                  OFFSET 3.37035 -0.52449 3.41376
                  CHANNELS 3 Zrotation Xrotation Yrotation
                  End Site
                  {
                    OFFSET 1.78271 -1.18214 1.43049
                  }
                }
              }
              JOINT lIndex1
              {
                OFFSET 7.75947 0.938293 5.60832
                CHANNELS 3 Zrotation Xrotation Yrotation
                JOINT lIndex2
                {
                  OFFSET 2.54057 -0.884171 1.56538
                  CHANNELS 3 Zrotation Xrotation Yrotation
                  End Site
                  {
                    OFFSET 1.62519 -0.234802 1.16502
                  }
                }
              }
              JOINT lMid1
              {
                OFFSET 8.24714 1.18213 3.41376
                CHANNELS 3 Zrotation Xrotation Yrotation
                JOINT lMid2
                {
                  OFFSET 3.10165 -0.590103 1.0647
                  CHANNELS 3 Zrotation Xrotation Yrotation
                  End Site
                  {
                    OFFSET 2.48547 -0.328903 0.83742
                  }
                }
              }
              JOINT lRing1
              {
                OFFSET 8.82822 0.546677 1.51678
                CHANNELS 3 Zrotation Xrotation Yrotation
                JOINT lRing2
                {
                  OFFSET 2.60934 -0.819778 -0.0198488
                  CHANNELS 3 Zrotation Xrotation Yrotation
                  End Site
                  {
                    OFFSET 2.33842 -0.294052 0.168128
                  }
                }
              }
              JOINT lPinky1
              {
                OFFSET 8.27202 -0.0477905 -0.4584
                CHANNELS 3 Zrotation Xrotation Yrotation
                JOINT lPinky2
                {
                  OFFSET 1.82734 -0.647385 -0.700984
                  CHANNELS 3 Zrotation Xrotation Yrotation
                  End Site
                  {
                    OFFSET 1.69225 -0.51767 -0.607171
                  }
                }
              }
            }
          }
        }
      }
    }
  }
  JOINT rButtock
  {
    OFFSET -8.77824 4.35084 1.2192
    CHANNELS 3 Zrotation Xrotation Yrotation
    JOINT rThigh
    {
      OFFSET 0 -1.70687 -2.19456
      CHANNELS 3 Zrotation Xrotation Yrotation
      JOINT rShin
      {
        OFFSET 0 -36.8199 0.73152
        CHANNELS 3 Zrotation Xrotation Yrotation
        JOINT rFoot
        {
          OFFSET 0.73152 -45.1104 -5.12064
          CHANNELS 3 Zrotation Xrotation Yrotation
          End Site
          {
            OFFSET -1.1221 -3.69964 12.103
          }
        }
      }
    }
  }
  JOINT lButtock
  {
    OFFSET 8.77824 4.35084 1.2192
    CHANNELS 3 Zrotation Xrotation Yrotation
    JOINT lThigh
    {
      OFFSET 0 -1.70687 -2.19456
      CHANNELS 3 Zrotation Xrotation Yrotation
      JOINT lShin
      {
        OFFSET 0 -36.8199 0.73152
        CHANNELS 3 Zrotation Xrotation Yrotation
        JOINT lFoot
        {
          OFFSET -0.73152 -45.1104 -5.12064
          CHANNELS 3 Zrotation Xrotation Yrotation
          End Site
          {
            OFFSET 1.1221 -3.69964 12.103
          }
        }
      }
    }
  }
}
MOTION
Frames:	8
Frame Time:	0.03333
0.0 0.0 0.0 0.0 0.0 0.0 0.0 0.0 0.0 0.0 0.0 0.0 0.0 0.0 0.0 0.0 0.0 0.0 0.0 0.0 0.0 0.0 0.0 0.0 0.0 0.0 0.0 0.0 0.0 0.0 0.0 0.0 0.0 0.0 0.0 0.0 0.0 0.0 0.0 0.0 0.0 0.0 0.0 0.0 0.0 0.0 0.0 0.0 0.0 0.0 0.0 0.0 0.0 0.0 0.0 0.0 0.0 0.0 0.0 0.0 0.0 0.0 0.0 0.0 0.0 0.0 0.0 0.0 0.0 0.0 0.0 0.0 0.0 0.0 0.0 0.0 0.0 0.0 0.0 0.0 0.0 0.0 0.0 0.0 0.0 0.0 0.0 0.0 0.0 0.0 0.0 0.0 0.0 0.0 0.0 0.0 0.0 0.0 0.0 0.0 0.0 0.0 0.0 0.0 0.0 0.0 0.0 0.0 0.0 0.0 0.0 0.0 0.0 0.0 0.0 0.0 0.0 0.0 0.0 0.0 0.0 0.0 0.0 0.0 0.0 0.0 0.0 0.0 0.0 0.0 0.0 0.0
-0.7556 57.36560000000001 4.1121 -164.007752 54.015774 -160.953578 0.011969 7.061844 -169.352624 -1.305528 6.397022 -178.002351 -12.524022 25.353142 -98.602791 38.639209 26.021294 106.080819 -0.002106 -0.0 0.000428 -0.002106 -0.0 0.000428 -9.651926 34.836028 11.199938 74.321342 -2.710666 79.943766 15.908715 49.340394 67.031942 -12.898737 45.574465 4.650705 -0.441149 0.435501 0.068921 -79.504604 24.678589 72.862772 -151.353123 -17.157921 121.134286 -62.151564 57.362699 46.045543 6.533402 -20.414866 -2.718411 9.777658 -20.372553 -1.534395 -0.01367 -1.323153 -0.415898 9.268534 13.415389 1.763609 -143.937007 8.265328 -140.719961 -6.751724 -18.977163 -9.629475 13.742981 42.431712 -15.568715 -118.716751 17.980258 -126.666604 -103.676783 -79.828944 46.156957 -138.201819 -47.303218 -133.094223 99.394036 37.100496 -57.49214 -23.758044 -31.167229 -23.955015 -2.325823 -3.867808 1.259486 171.352092 -27.532491 -108.505467 -23.902388 -61.334096 -1.397574 -167.661957 -64.03291 -133.017875 -0.004204 0.876289 -0.274771 -10.972154 -12.239216 1.53254 80.940161 -51.227152 79.35937 52.292511 -52.545075 53.459777 179.996475 75.749983 0.003637 138.800755 61.033719 -64.775827 -69.607786 -13.238986 -3.721867 117.999591 43.416425 -36.67958 179.980109 75.749983 0.016366 -144.783626 4.25432 -84.000336 -78.240982 -9.428285 39.73251 146.031981 25.317064 -79.751185
-1.1774 57.503499999999995 6.3689 -161.389482 57.124908 -158.58348 0.588466 11.290257 -0.0 2.661341 -11.291771 14.10464 6.553257 15.78801 64.82316 -25.893802 -13.95584 -51.72232 -0.001413 0.0 -0.002214 -0.000731 -0.0 0.002694 -155.460425 -3.227858 161.777258 107.566934 30.377386 -142.100389 -63.082412 79.117734 149.201184 -6.018887 29.015471 1.977749 116.309803 -50.010901 56.954588 -151.451955 6.619889 106.381521 -0.328305 0.529629 0.186657 -86.48861 47.213428 67.729358 0.046427 -0.138645 -0.028211 11.367427 -24.937736 -1.560815 -0.00124 -0.060753 -0.019696 -134.514708 -83.262143 -156.715282 -112.783623 -40.023566 -110.810048 -80.014418 -53.091765 -80.455458 153.160643 9.503473 -158.80372 99.941344 -22.284872 81.901737 -51.185826 -4.944843 -156.292275 -174.876286 30.573251 -161.805644 15.474696 14.199041 -4.248068 -1.715996 -0.471571 -7.990852 77.666864 43.029759 -64.538791 163.056436 -7.959832 -113.911187 173.037201 -44.087957 -144.930209 -4.163538 -3.155361 0.070251 0.001646 -0.060991 0.018131 156.520567 -27.665715 -175.093606 146.225702 15.470421 142.747746 161.189217 52.736252 146.792091 0.000253 0.001274 -0.000325 -21.1552 -4.781256 -0.0 3.848092 63.585454 -100.789869 -6.615774 -45.102026 87.90242 0.004939 -0.000138 0.002469 68.692663 -49.904641 -106.613188 -46.362283 -82.573182 -130.169614 18.670029 -51.766716 -76.943414
-1.6182999999999998 57.6771 8.686 -157.951585 59.819671 -155.378603 1.667623 10.936284 -0.0 2.52223 -11.691598 14.849398 -0.851264 11.316469 15.462195 3.277486 -24.674848 3.188632 -0.001388 0.0 -0.000131 -0.001169 -0.0 0.002788 -33.837451 -85.665768 -55.254601 96.11808 28.252741 -54.059153 -61.687648 12.845734 137.096615 13.256993 -30.177133 6.520616 -93.743765 37.965017 53.548771 -0.933403 -18.183635 26.102516 -145.488933 -6.527536 118.751495 -163.473368 -17.709236 119.38617 12.028739 -37.299302 -3.21879 -3.358668 17.343099 3.34396 -145.119417 0.226263 -179.200204 11.906184 29.60249 -5.638743 -133.878887 -15.638759 -131.332528 3.951804 2.834125 -0.984518 82.877048 68.300375 -86.00072 -125.109165 8.555264 -161.332855 45.370047 2.64844 -148.213044 -9.579004 0.87387 -12.361168 121.365165 30.32978 -71.95766 -8.04023 -31.922497 -25.089617 83.732166 42.331667 -69.990338 -117.939959 -65.478803 -66.55814 -3.775283 -11.559457 1.813302 42.105189 58.551343 -36.097842 70.37797 -72.12979 87.280239 -13.952247 28.504555 0.669918 29.627902 -40.969445 28.616623 23.844591 -41.247093 25.442319 179.995428 75.748961 0.004718 129.277466 60.025156 151.905571 61.471125 -15.003121 154.392295 152.694838 5.510186 -80.155059 179.993557 75.750429 0.004408 -142.24733 2.491899 87.37552 74.142643 9.776649 -92.611287 148.633914 -20.533462 -51.297046
-2.0514 57.8719 10.957500000000001 -153.896791 61.767551 -151.536456 2.324487 10.73597 12.542709 0.312051 -12.178417 2.355448 9.778982 21.99745 108.437881 -30.763676 11.024737 -85.782315 0.00573 -0.0 -0.000548 2.9e-05 0.0 1.4e-05 -0.273602 1.606745 0.361191 75.403773 12.141678 31.036321 -12.700396 43.879984 110.480254 -4.85343 7.303924 -1.13907 -155.677848 6.392529 87.886989 139.443963 -44.545151 86.419466 2.325746 -3.867957 -1.258528 -170.433151 -26.394076 108.757817 -167.298511 -27.767709 145.259009 -163.848966 -6.23226 143.123125 -70.380525 -72.129128 -87.280628 -64.73485 -82.429557 -90.693023 -136.279533 -10.956341 -133.617805 72.528062 84.16108 -33.9833 9.651473 34.836274 -11.198812 -85.141766 -20.372472 -94.270614 100.471315 -45.569594 -83.368903 -35.69403 -47.108294 -31.586942 78.030129 38.690132 -42.412845 -9.672033 -18.68638 -22.284925 145.338918 -6.263984 -118.678465 167.499442 -25.602055 -118.927011 0.285588 0.832811 -0.161446 -86.237062 -78.352556 -57.49937 145.112671 -0.626479 178.93036 156.440816 15.233352 -178.989851 137.124376 -9.171182 134.418839 160.612886 52.806223 146.946003 0.0 -0.000152 0.000368 -21.266012 -3.868155 -1.945878 10.465909 60.814755 -154.315388 176.679644 34.157317 -113.423448 -0.005316 -0.001313 -0.002658 72.896029 -46.333249 -39.289126 -81.900458 -16.215368 -169.333869 14.145257 -45.024594 -83.065527
-2.4657 58.024699999999996 13.1201 -149.992342 62.834574 -147.816262 1.69584 7.654407 107.362885 -9.721595 -1.789335 -92.587255 10.48139 18.040249 90.913545 -27.781569 2.568142 -69.238231 -0.001255 -0.0 0.001652 -0.000984 -0.0 0.003524 -155.537427 -3.733065 161.885798 -120.445329 -71.290417 -69.471595 -170.358953 55.698296 34.517897 -175.07175 -3.343715 142.771456 83.253803 -50.258004 33.616262 -164.818352 -61.362999 141.104605 -46.207035 39.654453 36.317223 -170.871625 -20.857804 111.719439 153.675634 -76.485002 121.223678 -88.789148 63.844938 80.316885 -145.117618 0.185027 -179.187358 -74.511942 -78.001171 -96.02438 26.98275 80.122263 10.127113 -76.840189 -53.965664 -75.478098 0.049109 0.292293 -0.065866 167.760915 -36.431964 -109.88702 111.722671 58.111791 125.176621 -1.432227 16.904342 -3.960648 169.582918 -7.265585 -89.930337 86.635453 8.303149 -32.340736 162.634628 -37.465649 -122.650785 -60.119767 -62.05614 -9.845935 160.673141 -6.668038 -143.244486 6.034463 23.204081 -5.437718 0.000313 0.063753 -0.020637 -10.308701 0.261601 0.035275 80.940068 -51.225775 79.359385 -53.390025 83.169795 14.964062 179.994162 75.750168 0.006023 130.59974 61.428976 116.886231 48.311856 6.090006 -87.324437 -121.601738 -11.315381 23.784381 0.000247 0.00075 0.0 73.710226 -45.927022 -0.0 -76.289545 24.741103 156.771038 -64.425086 30.988293 -2.999547
-2.8840999999999997 58.026999999999994 15.191199999999998 -147.039434 63.152967 -145.016634 5.022985 10.597418 -0.0 2.033979 -11.409056 15.204105 -9.750516 17.531198 -67.997345 32.26093 6.783104 89.029003 8e-05 -0.0 -0.004788 0.000533 0.0 5.6e-05 -155.445873 -3.134641 161.757332 105.149156 87.689491 -157.845496 174.110102 49.002526 -62.560936 -13.14336 -21.126558 -5.484193 -171.653416 -9.336411 89.9487 169.125872 -26.31653 97.658928 -35.097291 35.16162 26.611465 95.192458 -62.87288 45.857419 -36.035915 51.723169 29.832264 3.382583 0.079108 0.079676 -0.000323 -0.061032 -0.017898 -156.108496 -13.744694 173.484615 -126.798644 -26.618749 -124.511245 -4.989489 -17.307935 -8.445071 -2.784733 -21.387899 4.258135 -65.890308 10.402141 -26.181593 -4.242245 3.111997 -108.360581 9.738185 39.937107 -3.307159 14.735957 13.585347 -3.967272 -1.66621 -0.397003 -7.636426 19.16944 24.114484 -13.38203 -69.663142 -57.12359 -24.261201 -5.89238 -18.352122 2.543206 163.05526 -3.900228 -143.249196 0.014841 -1.323082 0.416332 -10.878375 -6.939073 0.913529 -25.907607 79.094461 -10.841626 21.511529 -37.209582 21.678581 -0.000572 -5.3e-05 0.000735 -20.06713 -5.349508 83.864422 60.248911 -8.412144 96.39961 33.678458 4.759694 157.571066 0.000557 -0.0001 -0.000717 74.989707 -48.891461 169.203002 72.918482 -7.04883 -127.036721 105.63222 37.946491 -41.930681
-3.3429 57.813700000000004 17.2411 -145.316355 63.057876 -143.472466 4.178305 9.979571 44.796114 -4.917802 -9.635426 -29.918135 -9.226053 21.959961 -94.545817 31.593118 20.026722 112.697578 0.003288 -0.0 -0.001714 -0.00242 0.0 -0.001225 -33.833515 -85.666031 -55.250581 7.457192 -1.978317 -55.194626 85.740453 -57.109664 -78.870197 -79.709944 48.25678 64.097687 -103.199393 36.331064 60.111474 -0.203257 -21.632494 26.020711 -108.427496 34.16005 91.742254 6.473079 -0.058094 -6.567226 -39.28993 53.365732 32.878255 3.337826 0.218296 0.10787 -0.014167 -1.323242 -0.415305 -155.306691 -1.114416 171.982289 -146.21177 15.428466 -142.736775 54.619899 81.931977 -17.592165 -1.447271 -9.723745 2.037562 102.546861 -4.696909 -147.436106 -6.092426 -7.074249 136.279927 -166.999824 -23.439701 -142.877486 3.029119 2.964575 -0.542544 23.661367 19.925523 -22.343783 -10.747449 -19.047836 4.725967 142.025191 11.067628 -107.499695 161.090873 -7.96304 -143.435817 28.10605 50.875509 -23.424178 0.022629 -1.807419 0.568347 156.239913 -21.328006 -174.356915 62.362849 -51.462293 60.963328 81.441805 -53.553822 81.962146 0.000408 0.000398 -0.000525 -16.425248 -5.772055 -83.08695 -51.558683 11.921614 1.720603 116.687344 28.155166 -19.492073 179.98139 75.750451 0.014344 -139.004727 -2.165053 -92.488864 -85.58064 0.050174 -97.165058 96.490771 44.448908 -177.002825
